<svg width="11" height="10" viewBox="0 0 11 10" fill="none" xmlns="http://www.w3.org/2000/svg">
<path d="M9.46946 5.74493H6.10211V9.11228C6.10211 9.29089 6.03116 9.46219 5.90486 9.5885C5.77856 9.7148 5.60726 9.78575 5.42864 9.78575C5.25003 9.78575 5.07873 9.7148 4.95243 9.5885C4.82613 9.46219 4.75517 9.29089 4.75517 9.11228V5.74493H1.38782C1.20921 5.74493 1.03791 5.67398 0.91161 5.54768C0.78531 5.42138 0.714355 5.25008 0.714355 5.07146C0.714355 4.89285 0.78531 4.72155 0.91161 4.59525C1.03791 4.46895 1.20921 4.39799 1.38782 4.39799H4.75517V1.03065C4.75517 0.852032 4.82613 0.680732 4.95243 0.554432C5.07873 0.428132 5.25003 0.357178 5.42864 0.357178C5.60726 0.357178 5.77856 0.428132 5.90486 0.554432C6.03116 0.680732 6.10211 0.852032 6.10211 1.03065V4.39799H9.46946C9.64807 4.39799 9.81937 4.46895 9.94567 4.59525C10.072 4.72155 10.1429 4.89285 10.1429 5.07146C10.1429 5.25008 10.072 5.42138 9.94567 5.54768C9.81937 5.67398 9.64807 5.74493 9.46946 5.74493Z" fill="#F31D1D"/>
</svg>
