<svg width="198" height="60" viewBox="0 0 198 60" fill="none" xmlns="http://www.w3.org/2000/svg">
<path d="M101.529 27H97.6834V16.4704C97.6834 16.18 97.6876 15.8232 97.6959 15.4001C97.7042 14.9686 97.7166 14.5288 97.7332 14.0808C97.7498 13.6244 97.7664 13.2137 97.783 12.8486C97.6917 12.9564 97.505 13.1431 97.2229 13.4087C96.9491 13.6659 96.6919 13.8982 96.4512 14.1056L94.3603 15.7859L92.5058 13.4709L98.368 8.80353H101.529V27ZM119.228 17.9018C119.228 19.3704 119.112 20.6814 118.879 21.8348C118.655 22.9881 118.29 23.9673 117.784 24.7721C117.286 25.577 116.631 26.191 115.818 26.6142C115.004 27.0373 114.017 27.2489 112.855 27.2489C111.395 27.2489 110.196 26.8797 109.258 26.1412C108.321 25.3944 107.628 24.324 107.18 22.9301C106.732 21.5278 106.508 19.8517 106.508 17.9018C106.508 15.9352 106.711 14.255 107.118 12.861C107.533 11.4587 108.205 10.3842 109.134 9.63743C110.063 8.89065 111.304 8.51726 112.855 8.51726C114.308 8.51726 115.502 8.89065 116.44 9.63743C117.386 10.3759 118.087 11.4463 118.543 12.8486C119 14.2426 119.228 15.927 119.228 17.9018ZM110.329 17.9018C110.329 19.2874 110.404 20.445 110.553 21.3743C110.711 22.2953 110.972 22.9881 111.337 23.4528C111.702 23.9175 112.208 24.1498 112.855 24.1498C113.494 24.1498 113.996 23.9216 114.361 23.4653C114.735 23.0006 115 22.3077 115.158 21.3867C115.316 20.4574 115.394 19.2957 115.394 17.9018C115.394 16.5161 115.316 15.3586 115.158 14.4292C115 13.4999 114.735 12.8029 114.361 12.3383C113.996 11.8653 113.494 11.6288 112.855 11.6288C112.208 11.6288 111.702 11.8653 111.337 12.3383C110.972 12.8029 110.711 13.4999 110.553 14.4292C110.404 15.3586 110.329 16.5161 110.329 17.9018ZM133.815 17.9018C133.815 19.3704 133.699 20.6814 133.466 21.8348C133.242 22.9881 132.877 23.9673 132.371 24.7721C131.873 25.577 131.218 26.191 130.405 26.6142C129.592 27.0373 128.604 27.2489 127.442 27.2489C125.982 27.2489 124.783 26.8797 123.846 26.1412C122.908 25.3944 122.215 24.324 121.767 22.9301C121.319 21.5278 121.095 19.8517 121.095 17.9018C121.095 15.9352 121.298 14.255 121.705 12.861C122.12 11.4587 122.792 10.3842 123.721 9.63743C124.65 8.89065 125.891 8.51726 127.442 8.51726C128.895 8.51726 130.089 8.89065 131.027 9.63743C131.973 10.3759 132.674 11.4463 133.13 12.8486C133.587 14.2426 133.815 15.927 133.815 17.9018ZM124.916 17.9018C124.916 19.2874 124.991 20.445 125.14 21.3743C125.298 22.2953 125.559 22.9881 125.924 23.4528C126.289 23.9175 126.795 24.1498 127.442 24.1498C128.081 24.1498 128.583 23.9216 128.948 23.4653C129.322 23.0006 129.587 22.3077 129.745 21.3867C129.903 20.4574 129.982 19.2957 129.982 17.9018C129.982 16.5161 129.903 15.3586 129.745 14.4292C129.587 13.4999 129.322 12.8029 128.948 12.3383C128.583 11.8653 128.081 11.6288 127.442 11.6288C126.795 11.6288 126.289 11.8653 125.924 12.3383C125.559 12.8029 125.298 13.4999 125.14 14.4292C124.991 15.3586 124.916 16.5161 124.916 17.9018ZM139.839 8.54215C141.266 8.54215 142.349 9.04001 143.087 10.0357C143.826 11.0314 144.195 12.4295 144.195 14.2301C144.195 16.0307 143.847 17.4371 143.15 18.4494C142.453 19.4617 141.349 19.9678 139.839 19.9678C138.437 19.9678 137.37 19.4617 136.64 18.4494C135.91 17.4371 135.545 16.0307 135.545 14.2301C135.545 12.4295 135.885 11.0314 136.566 10.0357C137.254 9.04001 138.345 8.54215 139.839 8.54215ZM139.864 11.1434C139.457 11.1434 139.159 11.4007 138.968 11.9151C138.777 12.4295 138.681 13.2095 138.681 14.255C138.681 15.3005 138.777 16.0846 138.968 16.6073C139.159 17.1301 139.457 17.3915 139.864 17.3915C140.27 17.3915 140.569 17.1342 140.76 16.6198C140.959 16.0971 141.059 15.3088 141.059 14.255C141.059 13.2095 140.959 12.4295 140.76 11.9151C140.569 11.4007 140.27 11.1434 139.864 11.1434ZM152.758 8.80353L142.664 27H139.677L149.771 8.80353H152.758ZM152.584 15.8108C154.011 15.8108 155.094 16.3086 155.832 17.3043C156.571 18.3 156.94 19.6982 156.94 21.4987C156.94 23.291 156.592 24.6933 155.895 25.7056C155.198 26.7179 154.094 27.224 152.584 27.224C151.182 27.224 150.115 26.7179 149.385 25.7056C148.655 24.6933 148.29 23.291 148.29 21.4987C148.29 19.6982 148.63 18.3 149.311 17.3043C149.999 16.3086 151.09 15.8108 152.584 15.8108ZM152.609 18.4121C152.202 18.4121 151.904 18.6693 151.713 19.1837C151.522 19.6982 151.426 20.4781 151.426 21.5236C151.426 22.5691 151.522 23.3532 151.713 23.876C151.904 24.3987 152.202 24.6601 152.609 24.6601C153.015 24.6601 153.314 24.4029 153.505 23.8884C153.704 23.3657 153.804 22.5774 153.804 21.5236C153.804 20.4781 153.704 19.6982 153.505 19.1837C153.314 18.6693 153.015 18.4121 152.609 18.4121Z" fill="white"/>
<path d="M75.6057 38.6561C76.9406 38.6561 77.9146 38.9438 78.5278 39.5192C79.1409 40.09 79.4475 40.8777 79.4475 41.8824C79.4475 42.3352 79.3791 42.7691 79.2424 43.1842C79.1056 43.5946 78.8815 43.9601 78.5702 44.2808C78.2636 44.6016 77.8533 44.8563 77.3391 45.045C76.825 45.2289 76.1906 45.3209 75.4359 45.3209H74.4949V49H72.3016V38.6561H75.6057ZM75.4925 40.4532H74.4949V43.5238H75.2166C75.6269 43.5238 75.9831 43.4696 76.2849 43.3611C76.5868 43.2526 76.8203 43.0828 76.9854 42.8517C77.1505 42.6205 77.233 42.3234 77.233 41.9602C77.233 41.4508 77.0915 41.0734 76.8085 40.8281C76.5255 40.5782 76.0868 40.4532 75.4925 40.4532ZM84.4709 40.9272C85.5322 40.9272 86.3459 41.1583 86.9119 41.6206C87.4779 42.0828 87.7609 42.7856 87.7609 43.729V49H86.2539L85.8364 47.9246H85.7798C85.5534 48.2076 85.3223 48.4387 85.0865 48.6179C84.8506 48.7972 84.5794 48.9292 84.2728 49.0142C83.9662 49.0991 83.5936 49.1415 83.1549 49.1415C82.688 49.1415 82.2682 49.0519 81.8956 48.8726C81.5276 48.6934 81.2376 48.4198 81.0253 48.0519C80.8131 47.6793 80.7069 47.2076 80.7069 46.6369C80.7069 45.7973 81.0017 45.1794 81.5913 44.7832C82.1809 44.3823 83.0653 44.1606 84.2445 44.1181L85.6171 44.0757V43.729C85.6171 43.3139 85.5086 43.0097 85.2917 42.8163C85.0747 42.6229 84.7728 42.5262 84.386 42.5262C84.004 42.5262 83.629 42.5804 83.2611 42.6889C82.8932 42.7974 82.5252 42.9342 82.1573 43.0993L81.4427 41.6418C81.8625 41.4201 82.3319 41.2456 82.8507 41.1182C83.3743 40.9909 83.9143 40.9272 84.4709 40.9272ZM85.6171 45.335L84.7822 45.3633C84.0842 45.3822 83.5983 45.5072 83.3247 45.7383C83.0559 45.9695 82.9215 46.2737 82.9215 46.651C82.9215 46.9812 83.0182 47.2171 83.2115 47.3586C83.4049 47.4953 83.6573 47.5637 83.9686 47.5637C84.4308 47.5637 84.82 47.4269 85.136 47.1534C85.4567 46.8798 85.6171 46.4907 85.6171 45.986V45.335ZM88.8575 41.0899H91.2207L92.7135 45.5402C92.7607 45.6817 92.8008 45.8256 92.8338 45.9718C92.8668 46.118 92.8951 46.269 92.9187 46.4246C92.9423 46.5803 92.9612 46.743 92.9753 46.9128H93.0178C93.0461 46.6581 93.0838 46.4199 93.131 46.1982C93.1829 45.9765 93.2465 45.7572 93.322 45.5402L94.7866 41.0899H97.1002L93.7536 50.0118C93.5508 50.5589 93.2866 51.0141 92.9612 51.3773C92.6357 51.7452 92.2607 52.0211 91.8362 52.2051C91.4164 52.389 90.9542 52.481 90.4495 52.481C90.2042 52.481 89.9919 52.4668 89.8127 52.4385C89.6335 52.415 89.4802 52.389 89.3528 52.3607V50.6485C89.4519 50.6721 89.5769 50.6933 89.7278 50.7122C89.8787 50.7311 90.0367 50.7405 90.2018 50.7405C90.5037 50.7405 90.7631 50.6768 90.9801 50.5495C91.1971 50.4221 91.3787 50.25 91.5249 50.033C91.6711 49.8207 91.7867 49.5872 91.8716 49.3325L91.9989 48.9434L88.8575 41.0899ZM107.529 40.9414C108.425 40.9414 109.102 41.1725 109.56 41.6347C110.022 42.0923 110.253 42.8281 110.253 43.8422V49H108.088V44.3799C108.088 43.8139 107.991 43.387 107.798 43.0993C107.604 42.8116 107.305 42.6677 106.899 42.6677C106.329 42.6677 105.923 42.8729 105.682 43.2832C105.442 43.6889 105.322 44.2714 105.322 45.0308V49H103.164V44.3799C103.164 44.0026 103.121 43.6865 103.036 43.4318C102.951 43.1771 102.822 42.9861 102.647 42.8587C102.473 42.7314 102.249 42.6677 101.975 42.6677C101.574 42.6677 101.258 42.7691 101.027 42.9719C100.8 43.17 100.638 43.4648 100.539 43.8563C100.444 44.2431 100.397 44.7171 100.397 45.2784V49H98.2393V41.0899H99.8878L100.178 42.1017H100.298C100.459 41.8281 100.659 41.6064 100.9 41.4366C101.145 41.2668 101.414 41.1418 101.706 41.0616C101.999 40.9814 102.296 40.9414 102.598 40.9414C103.178 40.9414 103.668 41.0357 104.069 41.2244C104.475 41.413 104.786 41.7055 105.003 42.1017H105.194C105.43 41.696 105.763 41.4012 106.192 41.2173C106.626 41.0333 107.071 40.9414 107.529 40.9414ZM115.736 40.9414C116.467 40.9414 117.097 41.0829 117.625 41.3659C118.154 41.6442 118.562 42.0498 118.849 42.5828C119.137 43.1158 119.281 43.7667 119.281 44.5356V45.5827H114.18C114.203 46.1911 114.385 46.6699 114.724 47.0189C115.069 47.3633 115.545 47.5354 116.154 47.5354C116.658 47.5354 117.121 47.4835 117.54 47.3798C117.96 47.276 118.392 47.1204 118.835 46.9128V48.5826C118.444 48.776 118.033 48.9175 117.604 49.0071C117.18 49.0967 116.663 49.1415 116.055 49.1415C115.262 49.1415 114.559 48.9953 113.946 48.7028C113.338 48.4104 112.859 47.9647 112.51 47.3656C112.166 46.7666 111.993 46.0119 111.993 45.1016C111.993 44.1771 112.149 43.4082 112.46 42.7951C112.776 42.1772 113.215 41.7149 113.776 41.4083C114.338 41.097 114.991 40.9414 115.736 40.9414ZM115.75 42.4767C115.331 42.4767 114.982 42.6111 114.703 42.88C114.43 43.1488 114.272 43.571 114.229 44.1464H117.257C117.253 43.8257 117.194 43.5403 117.081 43.2903C116.972 43.0403 116.807 42.8422 116.585 42.696C116.368 42.5498 116.09 42.4767 115.75 42.4767ZM125.528 40.9414C126.373 40.9414 127.052 41.1725 127.566 41.6347C128.08 42.0923 128.337 42.8281 128.337 43.8422V49H126.179V44.3799C126.179 43.8139 126.075 43.387 125.868 43.0993C125.665 42.8116 125.344 42.6677 124.906 42.6677C124.245 42.6677 123.795 42.8917 123.554 43.3398C123.314 43.7879 123.193 44.4341 123.193 45.2784V49H121.036V41.0899H122.684L122.974 42.1017H123.094C123.264 41.8281 123.474 41.6064 123.724 41.4366C123.979 41.2668 124.259 41.1418 124.566 41.0616C124.877 40.9814 125.198 40.9414 125.528 40.9414ZM133.891 47.4222C134.127 47.4222 134.356 47.3986 134.577 47.3515C134.804 47.3043 135.028 47.2454 135.25 47.1746V48.7807C135.018 48.8844 134.731 48.9693 134.386 49.0354C134.047 49.1061 133.674 49.1415 133.269 49.1415C132.797 49.1415 132.372 49.066 131.995 48.9151C131.622 48.7594 131.328 48.4929 131.111 48.1156C130.898 47.7335 130.792 47.2029 130.792 46.5237V42.7102H129.759V41.7975L130.948 41.0758L131.571 39.406H132.95V41.0899H135.165V42.7102H132.95V46.5237C132.95 46.8256 133.035 47.052 133.205 47.2029C133.379 47.3491 133.608 47.4222 133.891 47.4222ZM146.895 46.1275C146.895 46.7407 146.747 47.2737 146.45 47.7265C146.152 48.1793 145.719 48.5283 145.148 48.7736C144.582 49.0189 143.893 49.1415 143.082 49.1415C142.723 49.1415 142.372 49.1179 142.028 49.0708C141.688 49.0236 141.36 48.9552 141.044 48.8656C140.733 48.7712 140.436 48.6557 140.153 48.5189V46.4812C140.643 46.6982 141.153 46.894 141.681 47.0685C142.209 47.243 142.733 47.3303 143.252 47.3303C143.61 47.3303 143.898 47.2831 144.115 47.1888C144.337 47.0944 144.497 46.9647 144.596 46.7996C144.695 46.6345 144.745 46.4459 144.745 46.2336C144.745 45.9742 144.657 45.7525 144.483 45.5685C144.308 45.3846 144.068 45.2124 143.761 45.052C143.459 44.8917 143.117 44.7195 142.735 44.5356C142.495 44.4223 142.233 44.2856 141.95 44.1252C141.667 43.9601 141.398 43.7596 141.143 43.5238C140.889 43.288 140.679 43.0026 140.514 42.6677C140.353 42.3281 140.273 41.9224 140.273 41.4508C140.273 40.8329 140.414 40.3046 140.698 39.8659C140.981 39.4273 141.384 39.0924 141.907 38.8612C142.436 38.6254 143.058 38.5075 143.775 38.5075C144.313 38.5075 144.825 38.5712 145.311 38.6985C145.801 38.8212 146.313 39.0004 146.846 39.2362L146.138 40.9414C145.662 40.748 145.235 40.5994 144.858 40.4956C144.48 40.3871 144.096 40.3329 143.704 40.3329C143.431 40.3329 143.197 40.3777 143.004 40.4673C142.811 40.5522 142.664 40.6749 142.565 40.8352C142.466 40.9909 142.417 41.1725 142.417 41.38C142.417 41.6253 142.488 41.8328 142.629 42.0026C142.775 42.1677 142.992 42.3281 143.28 42.4837C143.572 42.6394 143.936 42.821 144.37 43.0285C144.898 43.2785 145.348 43.5403 145.721 43.8139C146.098 44.0827 146.388 44.4011 146.591 44.769C146.794 45.1322 146.895 45.585 146.895 46.1275ZM151.862 40.9414C152.593 40.9414 153.223 41.0829 153.751 41.3659C154.28 41.6442 154.688 42.0498 154.975 42.5828C155.263 43.1158 155.407 43.7667 155.407 44.5356V45.5827H150.306C150.329 46.1911 150.511 46.6699 150.85 47.0189C151.195 47.3633 151.671 47.5354 152.28 47.5354C152.784 47.5354 153.247 47.4835 153.666 47.3798C154.086 47.276 154.518 47.1204 154.961 46.9128V48.5826C154.57 48.776 154.159 48.9175 153.73 49.0071C153.306 49.0967 152.789 49.1415 152.181 49.1415C151.388 49.1415 150.685 48.9953 150.072 48.7028C149.464 48.4104 148.985 47.9647 148.636 47.3656C148.292 46.7666 148.119 46.0119 148.119 45.1016C148.119 44.1771 148.275 43.4082 148.586 42.7951C148.902 42.1772 149.341 41.7149 149.902 41.4083C150.464 41.097 151.117 40.9414 151.862 40.9414ZM151.876 42.4767C151.457 42.4767 151.107 42.6111 150.829 42.88C150.556 43.1488 150.398 43.571 150.355 44.1464H153.383C153.379 43.8257 153.32 43.5403 153.206 43.2903C153.098 43.0403 152.933 42.8422 152.711 42.696C152.494 42.5498 152.216 42.4767 151.876 42.4767ZM160.374 49.1415C159.591 49.1415 158.923 49 158.371 48.717C157.819 48.4293 157.4 47.9859 157.112 47.3869C156.824 46.7878 156.68 46.0213 156.68 45.0874C156.68 44.1205 156.843 43.3328 157.169 42.7243C157.499 42.1111 157.954 41.6607 158.534 41.3729C159.119 41.0852 159.796 40.9414 160.565 40.9414C161.112 40.9414 161.583 40.9956 161.98 41.1041C162.381 41.2079 162.73 41.3328 163.027 41.4791L162.39 43.1488C162.05 43.012 161.734 42.9012 161.442 42.8163C161.15 42.7267 160.857 42.6819 160.565 42.6819C160.187 42.6819 159.874 42.7715 159.624 42.9507C159.374 43.1252 159.187 43.3894 159.065 43.7431C158.942 44.0969 158.881 44.5403 158.881 45.0733C158.881 45.5968 158.947 46.0308 159.079 46.3751C159.211 46.7194 159.402 46.9765 159.652 47.1463C159.902 47.3114 160.206 47.3939 160.565 47.3939C161.013 47.3939 161.411 47.335 161.76 47.2171C162.109 47.0944 162.449 46.9246 162.779 46.7076V48.5543C162.449 48.7618 162.102 48.9104 161.739 49C161.381 49.0943 160.925 49.1415 160.374 49.1415ZM171.878 41.0899V49H170.222L169.932 47.9882H169.819C169.649 48.2571 169.437 48.4764 169.182 48.6462C168.928 48.816 168.647 48.941 168.34 49.0212C168.034 49.1014 167.715 49.1415 167.385 49.1415C166.819 49.1415 166.326 49.0425 165.906 48.8443C165.487 48.6415 165.159 48.3279 164.923 47.9033C164.692 47.4788 164.576 46.927 164.576 46.2477V41.0899H166.734V45.71C166.734 46.276 166.836 46.7029 167.038 46.9906C167.241 47.2784 167.564 47.4222 168.008 47.4222C168.446 47.4222 168.791 47.3232 169.041 47.1251C169.291 46.9223 169.465 46.6275 169.564 46.2407C169.668 45.8492 169.72 45.3728 169.72 44.8115V41.0899H171.878ZM178.557 40.9414C178.665 40.9414 178.79 40.9484 178.932 40.9626C179.078 40.972 179.196 40.9862 179.286 41.005L179.123 43.0285C179.052 43.005 178.951 42.9884 178.819 42.979C178.691 42.9649 178.58 42.9578 178.486 42.9578C178.208 42.9578 177.937 42.9932 177.672 43.0639C177.413 43.1347 177.18 43.2502 176.972 43.4106C176.764 43.5663 176.599 43.7738 176.477 44.0332C176.359 44.2879 176.3 44.6016 176.3 44.9742V49H174.142V41.0899H175.776L176.095 42.4201H176.201C176.356 42.1512 176.55 41.9059 176.781 41.6842C177.017 41.4578 177.283 41.2786 177.58 41.1465C177.882 41.0097 178.208 40.9414 178.557 40.9414ZM183.984 40.9414C184.715 40.9414 185.344 41.0829 185.873 41.3659C186.401 41.6442 186.809 42.0498 187.097 42.5828C187.384 43.1158 187.528 43.7667 187.528 44.5356V45.5827H182.427C182.451 46.1911 182.632 46.6699 182.972 47.0189C183.316 47.3633 183.793 47.5354 184.401 47.5354C184.906 47.5354 185.368 47.4835 185.788 47.3798C186.208 47.276 186.639 47.1204 187.082 46.9128V48.5826C186.691 48.776 186.281 48.9175 185.851 49.0071C185.427 49.0967 184.91 49.1415 184.302 49.1415C183.51 49.1415 182.807 48.9953 182.194 48.7028C181.585 48.4104 181.106 47.9647 180.757 47.3656C180.413 46.7666 180.241 46.0119 180.241 45.1016C180.241 44.1771 180.396 43.4082 180.708 42.7951C181.024 42.1772 181.462 41.7149 182.024 41.4083C182.585 41.097 183.238 40.9414 183.984 40.9414ZM183.998 42.4767C183.578 42.4767 183.229 42.6111 182.951 42.88C182.677 43.1488 182.519 43.571 182.477 44.1464H185.505C185.5 43.8257 185.441 43.5403 185.328 43.2903C185.219 43.0403 185.054 42.8422 184.833 42.696C184.616 42.5498 184.337 42.4767 183.998 42.4767ZM191.787 49.1415C190.905 49.1415 190.186 48.7972 189.63 48.1085C189.078 47.4152 188.802 46.3987 188.802 45.0591C188.802 43.7054 189.082 42.6819 189.644 41.9885C190.205 41.2904 190.938 40.9414 191.844 40.9414C192.221 40.9414 192.554 40.9932 192.842 41.097C193.129 41.2008 193.377 41.3399 193.585 41.5144C193.797 41.689 193.976 41.8847 194.122 42.1017H194.193C194.165 41.9507 194.129 41.7291 194.087 41.4366C194.049 41.1395 194.03 40.8352 194.03 40.5239V37.991H196.195V49H194.54L194.122 47.9741H194.03C193.894 48.1911 193.721 48.3892 193.514 48.5684C193.311 48.7429 193.068 48.8821 192.785 48.9858C192.502 49.0896 192.17 49.1415 191.787 49.1415ZM192.545 47.4222C193.134 47.4222 193.549 47.2477 193.79 46.8987C194.035 46.5449 194.165 46.0143 194.179 45.3067V45.0733C194.179 44.3044 194.061 43.7172 193.825 43.3115C193.589 42.9012 193.151 42.696 192.509 42.696C192.033 42.696 191.66 42.9012 191.391 43.3115C191.122 43.7219 190.988 44.3139 190.988 45.0874C190.988 45.861 191.122 46.4435 191.391 46.835C191.665 47.2265 192.049 47.4222 192.545 47.4222Z" fill="white"/>
<path d="M63.8158 39.7131V34.8C63.8158 30.2145 59.3554 26.6117 54.8951 26.6117C50.4347 26.6117 45.9743 30.2145 45.9743 34.8V39.7131C44.0627 39.7131 42.1511 41.6783 42.1511 43.6435V55.1072C42.1511 57.3999 44.0627 59.3651 45.9743 59.3651H63.4972C65.7274 59.3651 67.639 57.3999 67.639 55.4347V43.971C67.639 41.6783 65.7274 39.7131 63.8158 39.7131ZM59.674 39.7131H50.1161V34.8C50.1161 32.1797 52.3463 30.5421 54.8951 30.5421C57.4439 30.5421 59.674 32.1797 59.674 34.8V39.7131ZM35.8747 56.0898H7.10514C5.41519 56.0898 3.79445 55.3996 2.59947 54.1711C1.40449 52.9426 0.733154 51.2765 0.733154 49.5391V10.2349C0.733154 8.49755 1.40449 6.83135 2.59947 5.60286C3.79445 4.37436 5.41519 3.6842 7.10514 3.6842H58.081C61.6175 3.6842 64.453 6.59927 64.453 10.2349V23.4673C62.6052 22.0262 60.4705 20.9125 58.081 20.4212V16.7856H7.10514V26.6117H42.2785C40.5581 28.9699 39.6023 31.7867 39.6023 34.8V35.5861C37.3721 37.5513 35.7791 40.4991 35.7791 43.6435V55.1072C35.7791 55.4347 35.7791 55.7623 35.8747 56.0898Z" fill="#F31D1D"/>
</svg>
